<svg viewBox="0 0 120 135" xmlns="http://www.w3.org/2000/svg" fill-rule="evenodd" clip-rule="evenodd" stroke-linejoin="round" stroke-miterlimit="1.414"><g fill-rule="nonzero"><path d="M48.203 2.39c9.01-2.583 18.753-2.014 27.56 1.027 2.583.193 4.84 1.464 7.15 2.512 2.51 1.3 4.962 2.71 7.33 4.27.947.73 1.933 1.41 3.042 1.89 5.268 5.56 11.746 10.24 15.284 17.19l.23-.06c.74 1.85 1.89 3.49 2.78 5.27l.98-.22c-.18.45-.52 1.37-.69 1.84l1.08.21c2.47 7.77 5.77 15.41 6.33 23.64.27 7.69.44 15.5-1.69 22.99-.82 4.11-2.52 7.95-3.63 11.98l-.42-.35c-.35 1.65-.99 3.19-1.62 4.74-.7.92-1.4 1.84-2.02 2.82-.72 1.353-1.458 2.705-2.3 3.986-1.24 1.83-2.8 3.435-3.83 5.4-2.735 2.95-5.573 5.794-8.52 8.51-2.085 1.07-3.67 2.87-5.807 3.854l.58.21c-2.696.6-4.79 2.53-7.24 3.71-1.64.74-3.296 1.46-5.005 2-.988.33-1.985.64-2.97.94-9.286 2.746-19.415 2.88-28.69.02-2.116-.234-4.09-1.047-6.01-1.92-2.065-.775-3.936-1.954-5.99-2.768l.132-.99c-.49.14-1.477.44-1.964.59l-.01-.915c-4.43-1.95-7.43-5.814-11.35-8.5-1.636-2.44-3.64-4.574-5.74-6.62-1.7-2.866-4.03-5.34-5.17-8.54-.63-.963-1.324-1.87-2.016-2.784-.57-1.414-1.17-2.83-1.65-4.27-.36-1.018-.685-2.035-1-3.06-1.6-3.17-2.22-6.7-3.026-10.14-3.57-14.587-1.04-30.123 5.09-43.68.56-1.25 1.13-2.49 1.65-3.763l.345-.08c3.726-7.4 9.04-13.76 15.217-19.237 1.64-.528 2.79-1.81 3.95-3.01 1.8-.54 2.95-2.237 4.82-2.59l-.12-.38c2.13-.933 4-2.49 6.39-2.723l-.486-.44c1.655-.467 3.28-1.056 4.94-1.545 1.33-.406 2.684-.75 4.046-1.035zm3.977 2.827c-7.495 1.414-14.817 4.17-21.04 8.644-12.846 8.8-21.388 22.99-24.846 38.03C3.72 65.7 4.3 80.51 10.097 93.46c6.57 16.056 20.288 29.602 37.302 33.995 11.79 3.427 24.65 1.638 35.58-3.722 12.74-6.56 22.67-18.07 27.82-31.383 5.29-12.316 5.72-26.208 3.59-39.286-3.16-15.142-11.52-29.43-24.17-38.542C79.45 6.59 65.43 2.96 52.18 5.217zm-4.048 10.23c2.278-.376 4.556.804 5.888 2.624 4.282 5.64 4.963 13.31 3.468 20.06-1.027 4.29-3.102 8.88-7.29 10.89-3.856 1.99-8.717.95-11.87-1.87-2.755-2.3-3.62-6.06-3.894-9.48-.08-7.68 3.244-15.47 9.325-20.28 1.28-.95 2.76-1.73 4.37-1.93zm21.336 1.17c2.39-1.403 5.37-.51 7.403 1.12 6.23 4.96 9.01 13.158 8.85 20.927-.21 3.244-.92 6.804-3.47 9.06-3.66 3.53-9.88 4.018-13.9.825-5.02-4-6.59-10.92-6.09-17.06.51-5.48 2.28-11.79 7.21-14.88zM24.814 45.214c5.664-2.98 10.81 2.908 12.58 7.8 2.714 6.386 3.762 14.135.477 20.522-2.67 5.49-10.51 7.26-15.39 3.68-5.02-3.162-6.11-9.762-5.79-15.233.48-6.254 2.52-13.26 8.14-16.77zm66.01.915c2.36-1.17 5.166-.25 6.895 1.57 4.82 4.37 6.04 11.23 6.14 17.45-.27 4.5-.86 9.73-4.64 12.77-2.79 2.61-7.03 3.35-10.6 2.03-4.11-1.37-6.71-5.4-7.63-9.46-1.18-5.58.08-11.42 2.55-16.47 1.55-3.27 3.93-6.34 7.27-7.91zm-36.54 17.52c5.43-.9 11.93-.92 16.13 3.2 3.986 3.95 3.976 10.02 6.722 14.69 2.705 5.21 8.227 8.25 10.85 13.53 2.93 6.28 1.19 14.67-4.728 18.62-7.912 5.57-18.05 5.49-27.326 5.36-7.942-.1-16.566-1.39-22.627-6.99-4.556-4.15-4.8-11.22-2.99-16.73 3.295-6.65 11.125-10.26 12.763-17.91 1.393-5.88 4.434-12.85 11.207-13.78z" fill="#fff"/><path d="M48.203 2.39c9.01-2.583 18.753-2.014 27.56 1.027 2.583.193 4.84 1.464 7.15 2.512 2.51 1.3 4.962 2.71 7.33 4.27.947.73 1.933 1.41 3.042 1.89 5.268 5.56 11.746 10.24 15.284 17.19l.23-.06c.74 1.85 1.89 3.49 2.78 5.27l.98-.22c-.18.45-.52 1.37-.69 1.84l1.08.21c2.47 7.77 5.77 15.41 6.33 23.64.27 7.69.44 15.5-1.69 22.99-.82 4.11-2.52 7.95-3.63 11.98l-.42-.35c-.35 1.65-.99 3.19-1.62 4.74-.7.92-1.4 1.84-2.02 2.82-.72 1.353-1.458 2.705-2.3 3.986-1.24 1.83-2.8 3.435-3.83 5.4-2.735 2.95-5.573 5.794-8.52 8.51-2.085 1.07-3.67 2.87-5.807 3.854l.58.21c-2.696.6-4.79 2.53-7.24 3.71-1.64.74-3.296 1.46-5.005 2-.988.33-1.985.64-2.97.94-9.286 2.746-19.415 2.88-28.69.02-2.116-.234-4.09-1.047-6.01-1.92-2.065-.775-3.936-1.954-5.99-2.768l.132-.99c-.49.14-1.477.44-1.964.59l-.01-.915c-4.43-1.95-7.43-5.814-11.35-8.5-1.636-2.44-3.64-4.574-5.74-6.62-1.7-2.866-4.03-5.34-5.17-8.54-.63-.963-1.324-1.87-2.016-2.784-.57-1.414-1.17-2.83-1.65-4.27-.36-1.018-.685-2.035-1-3.06-1.6-3.17-2.22-6.7-3.026-10.14-3.57-14.587-1.04-30.123 5.09-43.68.56-1.25 1.13-2.49 1.65-3.763l.345-.08c3.726-7.4 9.04-13.76 15.217-19.237 1.64-.528 2.79-1.81 3.95-3.01 1.8-.54 2.95-2.237 4.82-2.59l-.12-.38c2.13-.933 4-2.49 6.39-2.723l-.486-.44c1.655-.467 3.28-1.056 4.94-1.545 1.33-.406 2.684-.75 4.046-1.035zm3.977 2.827c-7.495 1.414-14.817 4.17-21.04 8.644-12.846 8.8-21.388 22.99-24.846 38.03C3.72 65.7 4.3 80.51 10.097 93.46c6.57 16.056 20.288 29.602 37.302 33.995 11.79 3.427 24.65 1.638 35.58-3.722 12.74-6.56 22.67-18.07 27.82-31.383 5.29-12.316 5.72-26.208 3.59-39.286-3.16-15.142-11.52-29.43-24.17-38.542C79.45 6.59 65.43 2.96 52.18 5.217z" fill="#30659b"/><path d="M52.18 5.217C65.43 2.96 79.454 6.59 90.234 14.522c12.64 9.112 21.01 23.4 24.163 38.542 2.135 13.078 1.698 26.97-3.59 39.285-5.156 13.31-15.082 24.82-27.824 31.38-10.932 5.36-23.786 7.15-35.583 3.72-17.014-4.4-30.732-17.94-37.302-34-5.796-12.96-6.376-27.76-3.803-41.57 3.458-15.04 12-29.23 24.844-38.03 6.22-4.48 13.54-7.23 21.04-8.65zm-4.048 10.23c-1.607.204-3.09.977-4.373 1.933-6.09 4.81-9.41 12.6-9.33 20.288.27 3.417 1.14 7.18 3.89 9.478 3.15 2.817 8.01 3.854 11.86 1.87 4.19-2.013 6.26-6.6 7.29-10.89 1.49-6.753.81-14.42-3.47-20.055-1.33-1.82-3.61-3-5.89-2.62zm21.336 1.17c-4.932 3.09-6.702 9.397-7.21 14.878-.5 6.142 1.067 13.058 6.09 17.054 4.018 3.19 10.242 2.7 13.903-.83 2.55-2.26 3.26-5.82 3.47-9.06.16-7.77-2.62-15.97-8.85-20.93-2.03-1.63-5.01-2.52-7.4-1.12zM24.814 45.214c-5.614 3.508-7.658 10.515-8.136 16.77-.315 5.47.773 12.07 5.797 15.233 4.88 3.58 12.722 1.81 15.396-3.68 3.29-6.388 2.24-14.137-.47-20.523-1.77-4.892-6.91-10.78-12.58-7.8zm66.01.915c-3.336 1.57-5.716 4.64-7.27 7.91C81.08 59.08 79.82 64.93 81 70.5c.915 4.058 3.52 8.095 7.627 9.458 3.57 1.323 7.81.58 10.597-2.033 3.783-3.043 4.373-8.27 4.637-12.775-.1-6.214-1.32-13.078-6.14-17.45-1.73-1.82-4.53-2.747-6.89-1.577zm-36.54 17.52c-6.772.92-9.813 7.9-11.206 13.78-1.638 7.65-9.468 11.26-12.763 17.91-1.81 5.51-1.566 12.58 2.99 16.72 6.06 5.6 14.685 6.88 22.627 6.98 9.275.13 19.414.21 27.326-5.36 5.918-3.95 7.657-12.34 4.728-18.62-2.623-5.28-8.145-8.32-10.85-13.54-2.746-4.67-2.736-10.74-6.722-14.69-4.2-4.12-10.7-4.1-16.13-3.21z" fill="#98cd68"/></g></svg>